<svg width="640" height="640" xmlns="http://www.w3.org/2000/svg" role="img" class="svg-inline--fa fa-coffee fa-w-20" data-icon="coffee" data-prefix="fas" focusable="false" aria-hidden="true">

 <g>
  <title>Layer 1</title>
  <path id="svg_1" d="m192.02795,448l192,0c53,0 96,-43 96,-96l32,0c70.6,0 128,-57.4 128,-128s-57.4,-128 -128,-128l-392,0c-13.3,0 -24,10.7 -24,24l0,232c0,53 43,96 96,96zm320,-288c35.3,0 64,28.7 64,64s-28.7,64 -64,64l-32,0l0,-128l32,0zm47.7,384l-511.4,0c-47.6,0 -61,-64 -36,-64l583.3,0c25,0 11.8,64 -35.9,64z" fill="currentColor"/>
 </g>
</svg>