<svg width="512" height="512" xmlns="http://www.w3.org/2000/svg" role="img" class="svg-inline--fa fa-info fa-w-6" data-icon="info" data-prefix="fas" focusable="false" aria-hidden="true">

 <g>
  <title>Layer 1</title>
  <path id="svg_1" d="m180,424.229l20,0l0,-144.458l-20,0c-11.046,0 -20,-8.954 -20,-20l0,-47.771c0,-11.046 8.954,-20 20,-20l112,0c11.046,0 20,8.954 20,20l0,212.229l20,0c11.046,0 20,8.954 20,20l0,47.771c0,11.046 -8.954,20 -20,20l-152,0c-11.046,0 -20,-8.954 -20,-20l0,-47.771c0,-11.046 8.954,-20 20,-20zm76,-424.229c-39.765,0 -72,32.235 -72,72s32.235,72 72,72s72,-32.235 72,-72s-32.236,-72 -72,-72z" fill="currentColor"/>
 </g>
</svg>